<?xml version="1.0" standalone="no"?>
<!DOCTYPE svg PUBLIC "-//W3C//DTD SVG 20010904//EN"
 "http://www.w3.org/TR/2001/REC-SVG-20010904/DTD/svg10.dtd">
<svg version="1.0" xmlns="http://www.w3.org/2000/svg"
 width="2095.000000pt" height="2095.000000pt" viewBox="0 0 2095.000000 2095.000000"
 preserveAspectRatio="xMidYMid meet">
<metadata>
Created by potrace 1.14, written by Peter Selinger 2001-2017
</metadata>
<g transform="translate(0.000000,2095.000000) scale(0.100000,-0.100000)"
fill="#000000" stroke="none">
<path d="M9760 20850 c-278 -54 -521 -101 -540 -104 -49 -8 -77 -13 -220 -41
-69 -13 -136 -27 -150 -29 -61 -11 -247 -47 -270 -51 -14 -3 -41 -8 -60 -11
-19 -3 -42 -7 -50 -9 -16 -5 -215 -43 -265 -51 -16 -3 -73 -14 -125 -24 -52
-11 -106 -21 -120 -24 -14 -2 -65 -12 -115 -21 -49 -9 -97 -18 -105 -20 -8 -1
-64 -12 -125 -23 -60 -12 -123 -24 -140 -26 -16 -3 -75 -15 -130 -26 -55 -11
-113 -23 -130 -26 -50 -8 -297 -54 -345 -64 -50 -11 -361 -70 -400 -76 -14 -2
-36 -7 -50 -10 -14 -3 -36 -8 -50 -10 -14 -3 -59 -11 -100 -19 -86 -17 -121
-23 -170 -31 -19 -3 -53 -9 -75 -14 -22 -5 -56 -12 -75 -15 -19 -3 -52 -10
-74 -15 -21 -5 -46 -7 -55 -5 -9 1 -70 6 -136 10 -66 4 -138 9 -160 11 -22 2
-92 6 -155 9 -63 3 -135 8 -160 10 -43 4 -124 9 -310 20 -47 3 -110 7 -140 10
-30 2 -102 7 -160 11 -58 3 -106 7 -108 9 -2 2 -54 -25 -115 -59 -62 -33 -126
-68 -142 -76 -17 -8 -32 -17 -35 -20 -3 -3 -30 -18 -60 -33 -30 -15 -80 -41
-110 -58 -30 -17 -116 -63 -190 -103 -74 -40 -166 -90 -205 -111 -38 -21 -207
-112 -375 -202 -168 -91 -308 -168 -312 -172 -5 -5 -66 -215 -92 -321 -12 -48
-53 -198 -121 -445 -42 -154 -92 -336 -110 -405 -19 -69 -53 -192 -76 -275
-73 -268 -69 -242 -49 -299 10 -28 85 -229 168 -446 83 -217 259 -681 392
-1030 132 -349 247 -652 255 -672 8 -21 22 -55 30 -75 36 -94 145 -383 145
-387 0 -2 -111 -176 -246 -387 -136 -211 -259 -410 -274 -443 -15 -34 -47
-101 -70 -151 -23 -49 -75 -162 -115 -250 -40 -88 -92 -200 -115 -250 -23 -49
-187 -405 -365 -790 -178 -385 -340 -736 -360 -780 -21 -44 -103 -222 -182
-395 -80 -173 -158 -342 -173 -375 -16 -33 -141 -304 -278 -602 l-250 -541 -7
-134 c-4 -73 -8 -162 -11 -198 -2 -36 -6 -119 -9 -185 -3 -66 -7 -134 -10
-152 -3 -17 -2 -34 3 -37 5 -3 51 -8 103 -11 52 -3 121 -7 154 -10 77 -6 208
-14 309 -20 43 -3 104 -7 135 -10 31 -2 92 -7 136 -10 44 -3 109 -8 145 -10
80 -6 224 -15 305 -20 137 -8 458 -32 538 -39 36 -4 51 6 310 211 150 119 286
226 302 239 17 13 118 94 225 179 107 86 202 160 210 165 12 6 15 2 16 -18 1
-34 15 -179 19 -201 2 -10 6 -57 10 -107 4 -49 9 -96 10 -106 2 -9 6 -53 10
-98 4 -45 8 -90 10 -100 2 -9 6 -57 10 -106 4 -49 9 -97 11 -107 1 -10 6 -53
10 -95 4 -42 8 -88 9 -102 2 -14 6 -56 9 -95 4 -38 9 -83 11 -100 2 -16 7 -66
10 -110 4 -44 8 -91 10 -105 5 -35 23 -208 30 -295 4 -45 16 -170 20 -202 2
-15 6 -64 10 -108 3 -44 8 -87 10 -95 2 -8 7 -53 11 -100 4 -47 8 -94 10 -105
1 -11 3 -36 3 -55 1 -32 26 -60 297 -335 650 -659 1541 -1560 1581 -1598 43
-42 80 -61 1648 -852 358 -180 875 -441 1150 -580 275 -139 707 -357 960 -485
253 -127 465 -237 470 -243 13 -15 44 -15 53 -1 4 6 313 165 687 354 374 188
865 436 1090 550 226 114 716 362 1090 550 374 189 826 417 1005 507 l325 165
215 218 c118 121 463 469 765 775 303 306 634 642 736 746 l186 189 7 62 c4
35 9 79 11 98 2 19 6 62 9 95 3 33 8 87 11 120 9 92 15 156 20 195 3 19 7 62
10 95 2 33 7 83 10 110 16 157 23 221 40 413 3 31 8 73 10 92 7 53 17 159 20
210 3 45 13 139 20 195 2 17 7 65 10 108 4 44 8 87 10 98 2 10 7 56 10 102 4
45 8 96 11 112 2 17 6 62 10 100 3 39 7 84 9 100 2 17 6 57 10 90 3 32 7 60 8
61 1 1 79 -59 173 -134 94 -76 186 -148 203 -162 18 -14 83 -65 145 -114 61
-48 183 -145 271 -214 88 -69 162 -128 165 -132 17 -21 69 -46 90 -44 14 1 66
5 115 8 50 4 122 9 160 12 39 3 95 7 125 9 88 5 231 14 285 19 28 2 97 7 155
11 58 3 130 8 160 10 135 11 284 21 430 30 52 3 118 8 145 10 28 3 95 7 149
10 54 3 103 8 107 11 5 2 6 35 3 72 -2 37 -6 112 -9 167 -20 473 -18 458 -79
587 -57 121 -80 170 -161 348 -29 63 -67 147 -85 185 -18 39 -45 97 -60 130
-15 33 -44 96 -65 140 -21 44 -156 337 -300 650 -145 314 -274 595 -288 625
-33 69 -72 154 -259 560 -83 179 -163 352 -178 385 -15 33 -96 209 -180 390
-192 417 -188 409 -249 539 -28 59 -51 110 -51 112 0 2 -33 55 -73 117 -150
231 -393 609 -409 636 -16 28 -15 32 158 487 96 253 188 493 203 534 16 41
134 350 261 685 128 336 263 692 301 792 53 137 68 189 63 210 -4 15 -29 109
-56 208 -27 99 -51 188 -53 197 -2 9 -13 51 -25 93 -12 42 -23 84 -25 93 -2 9
-20 76 -40 147 -36 130 -152 552 -161 590 -6 25 -8 30 -23 85 -7 25 -15 53
-16 62 -5 21 -34 122 -49 167 -12 35 -28 46 -250 165 -123 65 -235 125 -296
159 -30 16 -82 44 -115 62 -33 18 -139 75 -235 127 -96 53 -215 117 -265 143
-49 27 -155 84 -235 128 l-145 79 -115 -7 c-63 -3 -140 -8 -170 -10 -78 -5
-222 -15 -310 -20 -41 -3 -109 -7 -150 -10 -41 -3 -115 -8 -165 -11 -49 -3
-110 -7 -135 -9 -25 -1 -97 -6 -160 -10 -63 -3 -124 -8 -135 -10 -11 -1 -49 3
-85 11 -36 7 -83 16 -105 19 -22 4 -56 10 -75 15 -19 5 -53 12 -75 16 -22 3
-85 15 -140 25 -55 11 -112 22 -127 24 -15 2 -35 6 -45 9 -10 3 -34 7 -53 10
-19 3 -46 8 -60 11 -21 4 -76 15 -260 50 -14 3 -52 10 -85 15 -33 6 -91 17
-130 25 -38 8 -86 17 -105 20 -19 3 -102 19 -185 35 -212 41 -202 39 -285 55
-41 7 -122 23 -180 34 -116 23 -130 25 -245 46 -44 8 -91 18 -105 21 -14 3
-38 7 -55 10 -16 2 -50 9 -75 14 -25 5 -58 12 -75 15 -16 3 -41 7 -55 10 -14
3 -50 9 -80 15 -30 6 -66 12 -80 15 -44 10 -234 45 -270 51 -19 3 -53 9 -75
14 -22 5 -56 12 -75 15 -19 3 -114 21 -210 40 -96 19 -191 37 -210 40 -19 3
-42 8 -50 10 -8 2 -31 6 -50 9 -19 2 -66 11 -105 19 -129 28 -243 49 -322 61
-18 2 -36 7 -41 10 -4 2 -26 7 -48 10 -21 3 -50 8 -64 11 -26 5 -128 23 -170
29 -14 3 -252 -40 -530 -94z m585 -183 c17 -3 93 -17 170 -32 152 -28 239 -45
270 -50 11 -2 56 -11 100 -19 44 -9 95 -19 114 -22 48 -8 70 -12 89 -18 9 -3
33 -7 52 -10 19 -3 46 -8 60 -11 13 -2 42 -7 64 -11 22 -3 43 -7 46 -9 3 -2
21 -6 40 -9 67 -11 95 -16 140 -26 25 -5 95 -18 155 -29 61 -12 182 -35 270
-52 88 -17 169 -33 180 -34 27 -4 106 -19 240 -45 61 -12 124 -24 140 -27 17
-3 86 -16 155 -29 69 -14 136 -27 150 -29 14 -2 50 -9 80 -15 56 -12 73 -15
125 -24 17 -2 66 -12 110 -20 44 -8 91 -17 105 -20 45 -8 394 -76 420 -81 23
-5 141 -27 215 -40 17 -3 50 -9 75 -15 25 -5 97 -18 160 -30 63 -12 147 -28
185 -35 88 -18 220 -42 263 -50 18 -3 65 -12 105 -21 69 -14 147 -14 322 1 28
2 91 7 140 10 50 3 124 7 165 10 41 2 116 7 165 10 50 3 119 8 155 10 158 12
396 27 435 28 17 1 127 -55 363 -184 131 -72 163 -90 257 -139 55 -29 105 -56
110 -60 6 -4 57 -32 115 -63 58 -31 204 -109 325 -175 l220 -119 33 -119 c18
-65 35 -128 37 -139 5 -21 238 -876 255 -935 6 -19 27 -98 48 -175 l38 -139
-88 -231 c-86 -222 -216 -566 -263 -690 -13 -33 -48 -125 -78 -205 -30 -80
-91 -242 -136 -360 -45 -118 -85 -224 -90 -235 -5 -11 -62 -159 -126 -330 -65
-170 -146 -386 -182 -479 -35 -92 -63 -171 -61 -175 4 -9 162 -257 387 -606
144 -225 181 -291 271 -485 56 -124 119 -259 138 -300 98 -212 278 -602 300
-650 13 -30 55 -120 92 -200 37 -80 79 -170 93 -200 13 -30 40 -89 60 -130 19
-41 57 -124 85 -185 28 -60 69 -150 92 -200 93 -199 132 -285 244 -527 46
-101 100 -219 121 -263 20 -44 45 -98 55 -120 10 -22 33 -74 53 -115 34 -73
198 -429 250 -540 14 -30 68 -149 122 -265 93 -202 97 -212 100 -290 2 -44 7
-133 10 -198 4 -64 3 -118 -2 -118 -4 -1 -28 -2 -53 -4 -25 -1 -83 -5 -130 -9
-181 -14 -208 -16 -290 -21 -47 -3 -112 -7 -145 -10 -33 -2 -98 -7 -145 -10
-47 -3 -110 -8 -140 -10 -48 -4 -125 -9 -300 -20 -25 -2 -97 -6 -160 -10 -63
-4 -118 -9 -123 -12 -4 -2 -71 46 -150 108 -371 294 -523 414 -533 424 -7 5
-24 19 -40 30 -15 11 -44 34 -64 50 -20 17 -52 42 -71 57 -150 118 -458 363
-475 377 -19 16 -65 96 -189 326 -21 39 -64 117 -96 175 -37 66 -60 122 -64
150 -3 25 -7 63 -10 85 -3 22 -12 96 -20 165 -9 69 -18 145 -21 170 -6 56 -14
125 -20 165 -2 17 -6 48 -8 70 -5 47 -24 211 -32 275 -7 51 -9 70 -18 155 -4
33 -9 70 -12 83 -2 12 -7 48 -9 80 -3 31 -8 72 -10 90 -3 18 -7 54 -10 80 -3
26 -8 63 -10 82 -3 19 -7 54 -10 78 -3 23 -7 61 -10 85 -3 23 -8 62 -11 87 -5
49 -22 192 -39 325 -2 17 -7 53 -10 80 -3 28 -8 68 -11 90 -2 22 -6 56 -8 75
-2 19 -7 58 -11 85 -9 75 -24 194 -30 250 -3 28 -7 61 -10 75 -2 14 -6 52 -9
85 -4 33 -9 76 -12 95 -6 44 -13 100 -19 165 -2 28 -7 66 -10 85 -13 94 -17
127 -20 155 -1 17 -5 55 -9 85 -10 80 -24 198 -31 255 -3 28 -8 64 -10 80 -2
17 -7 51 -10 78 -7 63 -13 112 -31 257 -3 24 -10 47 -15 51 -6 3 -91 37 -190
74 -98 38 -179 72 -179 77 0 4 43 96 95 204 52 108 95 198 95 199 0 2 50 105
110 230 61 125 110 228 110 230 0 1 44 94 99 206 54 112 165 343 245 512 l147
308 -317 497 c-175 273 -336 526 -359 562 -65 101 -99 153 -110 172 -5 10 -54
86 -108 170 -54 84 -128 200 -165 257 l-67 105 -115 27 c-162 37 -478 110
-520 119 -19 5 -57 13 -85 19 -27 6 -129 29 -225 51 -96 22 -245 56 -330 76
-85 19 -162 37 -170 39 -8 2 -46 11 -85 20 -38 9 -79 18 -90 20 -45 9 -119 25
-217 49 -57 14 -114 27 -128 30 -14 3 -53 12 -87 20 -34 9 -75 18 -90 21 -50
9 -67 13 -113 25 -25 7 -56 14 -70 17 -14 2 -54 11 -90 19 -36 9 -72 17 -80
19 -8 2 -96 22 -195 45 -99 22 -189 43 -201 45 -11 3 -139 32 -285 66 -278 64
-378 86 -419 95 -14 3 -63 14 -110 25 -47 11 -105 25 -130 30 -25 6 -52 12
-60 14 -8 2 -85 19 -170 39 -436 100 -608 138 -635 139 -32 1 -67 -6 -155 -28
-30 -8 -66 -16 -80 -19 -30 -5 -331 -74 -515 -117 -71 -17 -137 -32 -145 -34
-30 -7 -386 -87 -400 -90 -29 -8 -318 -74 -515 -118 -110 -25 -229 -53 -265
-61 -36 -8 -76 -17 -90 -19 -14 -3 -52 -12 -85 -20 -55 -15 -88 -22 -140 -32
-11 -3 -128 -29 -260 -60 -132 -31 -250 -58 -263 -61 -34 -7 -275 -62 -367
-84 -44 -10 -91 -21 -105 -24 -14 -3 -36 -8 -50 -11 -14 -3 -43 -9 -65 -14
-22 -5 -92 -21 -155 -36 -63 -15 -126 -29 -140 -31 -14 -3 -61 -14 -105 -24
-148 -35 -379 -88 -593 -137 l-212 -47 -59 -91 c-32 -49 -122 -191 -201 -315
-79 -124 -257 -403 -396 -620 -426 -666 -467 -732 -467 -744 0 -6 38 -87 83
-181 78 -162 243 -504 355 -740 110 -230 165 -344 225 -470 34 -71 82 -170
105 -220 24 -49 63 -133 88 -184 l46 -95 -77 -29 c-42 -16 -86 -32 -97 -37
-49 -22 -181 -70 -192 -70 -14 0 -21 -20 -28 -90 -3 -30 -8 -66 -10 -80 -2
-14 -7 -52 -10 -85 -3 -33 -8 -71 -10 -85 -2 -14 -7 -50 -11 -80 -3 -30 -8
-66 -9 -80 -2 -14 -6 -54 -10 -90 -3 -36 -8 -76 -10 -90 -6 -37 -12 -86 -35
-280 -11 -96 -22 -191 -25 -210 -5 -36 -11 -91 -20 -170 -3 -25 -8 -61 -11
-80 -3 -19 -7 -51 -9 -70 -4 -48 -15 -139 -20 -170 -2 -14 -7 -52 -11 -85 -3
-33 -7 -71 -9 -85 -2 -14 -6 -52 -10 -85 -3 -33 -7 -71 -9 -85 -3 -14 -7 -47
-10 -75 -4 -27 -8 -68 -11 -90 -3 -22 -12 -96 -20 -165 -9 -69 -18 -143 -21
-165 -2 -22 -6 -56 -9 -75 -2 -19 -6 -57 -9 -85 -7 -59 -15 -125 -22 -180 -3
-22 -7 -56 -9 -75 -2 -19 -6 -54 -9 -77 -13 -97 -17 -130 -21 -178 -3 -27 -7
-59 -9 -70 -2 -11 -7 -49 -11 -85 -3 -36 -8 -76 -10 -90 -2 -14 -7 -47 -10
-75 -3 -27 -7 -63 -9 -80 -2 -16 -7 -55 -10 -85 -4 -30 -9 -71 -11 -90 -2 -19
-7 -60 -11 -90 -3 -30 -8 -66 -9 -80 -1 -14 -5 -43 -8 -65 -7 -43 -17 -121
-22 -170 -2 -16 -53 -122 -115 -235 -222 -407 -211 -389 -291 -450 -40 -30
-77 -60 -83 -65 -6 -6 -85 -68 -176 -140 -91 -71 -179 -140 -196 -154 -17 -14
-48 -39 -69 -56 -21 -16 -75 -59 -120 -95 -45 -36 -97 -77 -116 -92 -78 -61
-357 -282 -393 -311 -77 -63 -111 -84 -131 -81 -17 3 -92 8 -285 19 -25 1 -81
5 -125 9 -44 3 -120 9 -170 12 -49 4 -106 8 -125 9 -19 1 -82 6 -140 9 -99 6
-171 11 -300 21 -30 2 -100 7 -155 11 -95 6 -161 11 -177 13 -4 1 -6 34 -3 74
2 39 7 128 10 195 6 131 2 116 85 297 123 268 150 326 170 370 12 28 38 84 57
125 20 41 196 424 393 850 197 426 375 811 395 855 20 44 78 168 127 275 50
107 103 222 118 255 15 33 66 143 113 245 46 102 108 234 136 294 28 59 51
110 51 111 0 2 19 43 41 92 78 166 111 238 169 364 53 117 83 168 275 464 328
508 337 523 330 557 -4 18 -11 38 -15 43 -4 6 -19 42 -33 80 -14 39 -91 243
-172 455 -81 212 -171 448 -200 525 -177 466 -329 868 -350 920 -78 200 -245
647 -245 657 0 6 9 42 21 81 11 38 22 77 24 86 2 9 27 102 56 206 28 105 62
230 76 279 13 49 51 189 84 310 33 122 71 262 84 311 37 136 62 226 66 229 2
2 94 52 204 111 110 59 223 120 250 135 103 56 165 90 370 200 116 62 230 124
255 138 48 26 132 71 233 126 34 18 71 32 82 30 11 -2 65 -5 120 -8 55 -3 127
-8 160 -10 33 -3 101 -8 150 -11 50 -3 128 -8 175 -11 47 -3 112 -7 145 -9 33
-2 96 -6 140 -9 203 -15 246 -17 335 -21 65 -2 123 3 185 16 50 10 104 21 120
23 26 5 64 12 162 32 13 2 35 6 50 9 16 2 51 9 78 15 28 6 64 13 80 15 17 2
41 7 55 9 43 9 74 15 100 20 14 2 133 25 265 51 132 25 256 48 275 51 19 3 51
9 70 14 19 5 51 11 70 14 19 3 46 8 60 11 34 7 177 33 220 40 19 3 53 10 75
15 22 5 90 19 150 30 61 11 121 23 135 25 14 3 39 7 55 10 17 3 41 8 55 10 14
3 36 7 50 10 14 3 36 7 50 10 14 2 40 7 59 10 18 3 99 19 180 35 80 16 173 34
206 40 33 6 71 13 85 16 14 2 59 11 100 19 41 8 89 17 105 20 17 2 41 7 55 10
14 3 48 9 75 15 28 5 60 11 71 14 12 2 39 7 60 10 22 4 46 8 54 11 8 2 31 6
50 9 19 3 46 8 60 11 14 3 36 7 50 10 14 2 45 8 70 13 40 9 73 16 145 27 17 3
102 20 205 40 14 3 50 9 80 15 30 6 66 12 80 15 14 3 36 7 50 10 36 5 195 36
260 49 30 7 57 9 60 5 3 -4 19 -9 35 -12z m5 -692 c19 -3 80 -17 135 -30 55
-13 111 -26 125 -29 14 -2 135 -30 270 -61 135 -31 252 -58 260 -60 8 -2 96
-22 195 -44 99 -23 268 -61 375 -86 107 -24 227 -51 265 -60 39 -9 81 -19 95
-22 14 -2 70 -15 125 -28 55 -13 159 -37 230 -53 72 -17 261 -60 420 -96 160
-37 299 -68 310 -71 75 -16 399 -91 460 -106 22 -5 49 -11 60 -13 11 -2 52
-12 90 -21 39 -9 79 -18 91 -21 12 -2 140 -31 285 -65 145 -33 275 -63 289
-65 13 -3 63 -14 110 -25 47 -12 95 -23 108 -25 73 -14 227 -55 233 -61 4 -5
127 -197 274 -428 147 -231 286 -449 310 -485 130 -202 445 -698 445 -703 0
-2 -36 -80 -81 -173 -45 -93 -100 -209 -124 -259 -48 -101 -131 -275 -225
-470 -70 -146 -151 -316 -215 -450 -223 -469 -239 -499 -337 -614 l-93 -111
-185 5 c-102 3 -234 8 -295 10 -131 5 -344 13 -585 20 -96 3 -227 8 -290 10
-63 3 -180 7 -260 10 -80 2 -212 7 -295 10 -82 3 -215 7 -295 10 -151 5 -353
12 -550 20 -63 2 -194 7 -290 10 -96 3 -229 8 -295 10 -243 9 -482 17 -570 20
-49 1 -191 6 -315 11 -277 10 -383 10 -670 -1 -124 -4 -256 -9 -295 -10 -73
-2 -379 -13 -575 -20 -63 -2 -196 -7 -295 -10 -186 -6 -342 -11 -550 -20 -66
-3 -199 -7 -295 -10 -96 -3 -233 -7 -305 -10 -120 -5 -218 -8 -560 -20 -71 -3
-193 -7 -270 -10 -77 -2 -223 -7 -325 -10 -102 -4 -230 -8 -285 -10 -55 -3
-179 -7 -275 -10 l-176 -6 -54 63 c-30 35 -60 69 -67 76 -49 51 -88 112 -133
207 -29 61 -70 148 -92 195 -22 47 -85 177 -139 289 -55 112 -99 205 -99 207
0 1 -43 92 -96 201 -53 109 -116 239 -139 288 -24 50 -73 153 -110 230 -37 77
-87 182 -111 233 l-43 93 73 112 c40 62 89 139 110 172 20 33 105 167 189 298
84 130 265 413 402 629 138 215 253 395 256 401 5 7 278 74 454 111 11 2 63
14 115 26 52 12 102 23 110 25 18 4 109 25 130 30 8 2 107 25 220 50 113 26
230 53 260 60 30 7 138 31 240 55 225 51 294 67 525 120 99 23 189 43 200 45
11 3 79 18 150 35 329 76 572 131 590 134 11 2 79 18 150 35 72 16 308 71 525
120 217 49 436 99 485 111 50 12 128 30 175 40 47 10 132 30 190 43 58 13 107
20 110 16 3 -3 21 -10 40 -14z m-4823 -4899 l89 -103 60 3 c53 2 272 10 569
19 61 2 173 6 250 9 77 3 223 8 325 11 102 3 239 8 305 10 66 3 192 7 280 10
88 3 210 7 270 10 61 2 193 6 295 10 102 3 239 8 305 10 191 8 377 15 555 20
91 2 213 7 270 9 58 3 193 8 300 12 107 3 238 7 290 9 52 2 185 6 295 11 240
8 348 8 605 -1 107 -3 242 -8 300 -10 109 -4 308 -11 565 -21 83 -3 213 -8
290 -10 413 -13 656 -21 855 -29 181 -7 449 -16 565 -20 55 -2 183 -6 285 -9
102 -4 239 -8 305 -11 119 -5 344 -13 565 -20 117 -4 413 -14 551 -19 l77 -3
87 103 c49 57 91 104 95 104 9 0 131 -45 183 -68 31 -13 37 -21 38 -46 0 -17
2 -40 4 -51 3 -11 7 -45 10 -75 3 -30 8 -67 11 -82 3 -15 7 -42 9 -60 1 -18 6
-64 10 -103 3 -38 8 -77 10 -85 2 -8 7 -46 10 -85 4 -38 8 -77 10 -85 2 -8 7
-40 10 -70 7 -61 10 -88 24 -205 6 -44 13 -102 16 -130 3 -27 8 -63 10 -80 2
-16 9 -75 15 -130 14 -126 17 -153 23 -190 3 -16 8 -59 12 -95 4 -36 8 -76 10
-90 4 -34 13 -109 25 -210 6 -47 13 -101 15 -120 6 -40 14 -117 20 -175 2 -22
7 -56 10 -75 3 -19 7 -60 10 -90 3 -30 7 -68 10 -85 6 -42 15 -104 30 -235 9
-74 13 -113 19 -160 20 -159 38 -311 41 -345 4 -38 18 -157 31 -255 8 -63 11
-86 18 -160 4 -36 8 -72 11 -80 2 -8 7 -46 11 -85 10 -105 10 -107 17 -155 13
-85 15 -105 16 -135 1 -19 41 -103 102 -215 55 -102 113 -207 128 -235 161
-294 146 -274 253 -358 54 -43 97 -81 94 -85 -2 -4 -7 -41 -11 -82 -3 -41 -8
-86 -10 -100 -2 -14 -6 -54 -9 -90 -19 -212 -35 -372 -41 -410 -2 -14 -7 -61
-10 -105 -3 -44 -8 -96 -10 -115 -2 -19 -7 -64 -10 -100 -3 -36 -7 -81 -10
-100 -2 -19 -7 -66 -10 -105 -3 -38 -8 -81 -10 -95 -2 -14 -7 -59 -10 -100 -3
-41 -7 -88 -9 -105 -4 -32 -14 -131 -21 -205 -3 -25 -7 -72 -10 -105 -5 -65
-14 -149 -20 -205 -2 -19 -7 -64 -10 -100 -3 -36 -8 -81 -10 -100 -3 -19 -7
-64 -10 -100 -3 -36 -8 -74 -10 -85 -2 -11 -4 -40 -4 -65 l-1 -45 -256 -260
c-344 -349 -1446 -1464 -1511 -1529 -46 -45 -102 -77 -435 -245 -764 -386
-1395 -704 -1983 -1001 -330 -166 -846 -427 -1147 -579 l-546 -276 -464 234
c-254 129 -679 343 -943 476 -1015 513 -1619 817 -2125 1072 l-525 264 -314
317 c-233 235 -1486 1503 -1498 1515 -1 2 -9 53 -18 125 -2 20 -7 69 -10 107
-4 39 -8 84 -9 100 -2 17 -7 64 -10 105 -4 41 -9 86 -11 100 -2 14 -7 61 -10
105 -4 44 -8 94 -10 110 -3 17 -7 62 -10 100 -3 39 -8 81 -10 95 -3 21 -11
105 -20 215 -2 30 -12 115 -21 190 -2 22 -6 65 -9 95 -2 30 -6 75 -9 100 -3
25 -8 77 -11 115 -4 39 -8 86 -10 105 -2 19 -7 64 -11 100 -3 36 -8 76 -9 90
-2 14 -6 57 -9 95 -4 39 -8 90 -11 115 -2 25 -7 74 -10 110 -4 36 -8 76 -10
90 -2 14 -7 58 -10 98 -8 81 -10 77 75 141 19 14 46 36 61 49 14 12 33 28 41
35 9 6 99 165 200 352 l185 340 12 92 c7 50 14 109 16 130 2 21 6 52 8 68 3
17 8 62 12 100 3 39 8 77 10 85 2 8 6 42 10 75 3 33 8 74 10 90 7 60 15 121
20 170 3 28 8 64 10 80 2 17 7 53 10 80 3 28 10 84 15 125 6 41 12 95 14 120
6 56 16 137 21 170 6 44 17 129 20 168 6 54 13 113 18 147 3 17 9 62 13 100 4
39 8 77 9 85 2 8 6 44 9 80 4 36 9 77 11 91 3 15 7 47 10 70 3 24 8 67 11 94
4 28 8 64 9 80 2 17 6 55 10 85 4 30 18 145 31 255 13 110 27 220 30 245 3 25
7 63 9 84 3 21 7 55 9 75 9 64 27 214 32 266 3 28 6 55 9 62 2 6 7 49 11 95 3
46 8 86 10 89 2 3 6 39 10 80 3 41 8 76 9 79 2 3 6 41 10 85 4 44 9 83 11 86
2 4 6 33 9 65 5 61 12 105 17 109 9 5 195 73 205 74 6 1 51 -46 100 -103z"/>
<path d="M10165 18712 c-17 -9 -70 -43 -118 -75 -95 -65 -75 -61 -222 -43 -16
2 -55 7 -85 10 l-56 6 -74 -102 c-41 -56 -78 -106 -81 -111 -6 -8 -122 -39
-198 -53 -68 -12 -78 -20 -94 -76 -9 -29 -26 -88 -38 -130 l-22 -78 -111 -71
c-107 -70 -128 -87 -122 -99 2 -3 7 -62 10 -132 l7 -127 -80 -107 c-45 -59
-81 -110 -81 -114 0 -3 25 -62 55 -130 30 -67 52 -126 49 -131 -3 -5 -7 -17
-9 -26 -2 -10 -18 -65 -35 -122 -26 -86 -29 -106 -18 -119 7 -9 50 -55 95
-102 77 -80 83 -88 84 -130 0 -25 3 -74 6 -110 2 -36 5 -78 6 -94 2 -26 13
-33 126 -90 l124 -61 53 -123 c29 -68 54 -125 56 -127 1 -2 30 -6 63 -9 59 -6
105 -12 175 -20 29 -3 51 -21 130 -105 l95 -100 132 33 132 34 124 -63 125
-63 113 75 c62 41 120 75 128 75 15 0 38 -2 200 -21 l64 -8 80 108 c89 120 85
118 254 155 46 10 87 20 92 23 7 5 24 59 77 244 3 10 59 54 125 98 66 44 118
83 115 87 -2 4 -7 59 -11 122 -3 63 -8 117 -11 119 -6 6 16 39 99 149 l69 93
-56 127 -56 127 40 129 c32 105 37 133 27 145 -15 20 -7 11 -100 107 l-77 80
-7 114 c-3 63 -6 126 -7 138 0 20 -19 34 -125 87 l-126 64 -29 68 c-72 169
-79 183 -100 185 -12 1 -30 2 -41 3 -11 1 -42 5 -70 9 -27 4 -70 9 -95 11 -42
4 -51 11 -140 105 l-95 101 -134 -32 -134 -32 -116 59 c-64 32 -118 60 -121
61 -3 1 -19 -6 -35 -15z m-597 -762 c10 0 12 -11 6 -46 -5 -36 -9 -499 -4
-539 1 -15 210 536 213 564 2 23 4 23 105 23 57 0 106 -3 109 -6 4 -3 -1 -12
-10 -19 -15 -10 -250 -615 -250 -642 0 -27 235 -632 250 -642 23 -17 14 -23
-38 -24 -131 -4 -168 1 -167 19 1 16 -75 227 -108 299 -8 17 -14 34 -14 39 0
15 -83 224 -89 224 -8 0 -5 -469 3 -531 l7 -48 -38 -3 c-21 -2 -66 -1 -101 0
-55 3 -62 6 -55 20 11 24 15 1250 4 1284 -5 14 -8 28 -6 30 3 2 84 2 183 -2z
m935 1 c25 -1 97 -77 98 -103 0 -13 1 -126 1 -252 l0 -229 -42 -40 -41 -40 41
-42 42 -43 0 -228 c0 -126 -1 -239 -1 -252 -1 -29 -77 -102 -107 -102 -13 -1
-108 -1 -211 -1 l-188 0 3 28 c1 15 4 300 5 633 2 473 0 612 -10 637 l-13 32
53 3 c42 2 292 1 370 -1z m696 -40 l41 -43 0 -292 0 -292 -40 -39 c-38 -38
-41 -43 -36 -85 6 -50 25 -189 32 -235 10 -64 13 -82 19 -133 4 -30 13 -79 21
-109 8 -31 12 -58 9 -61 -6 -7 -184 -6 -191 0 -2 3 -1 15 4 28 5 13 5 46 0 74
-4 28 -10 69 -13 91 -4 22 -8 52 -11 66 -2 15 -6 47 -9 70 -3 24 -7 55 -10 69
-2 14 -7 45 -11 70 -6 39 -9 60 -13 103 -1 5 -20 7 -43 5 l-42 -3 -2 -245 c-1
-135 3 -262 8 -284 5 -21 7 -41 3 -44 -7 -7 -183 -7 -190 0 -3 3 0 18 5 34 13
36 9 1250 -3 1276 -11 22 3 23 240 22 l192 -1 40 -42z"/>
<path d="M10270 17580 l0 -209 33 -3 c17 -2 55 -1 83 0 l52 4 -2 206 -1 207
-82 2 -83 1 0 -208z"/>
<path d="M10270 16998 c0 -132 4 -208 10 -209 6 0 39 -1 75 -1 36 0 69 1 73 1
5 1 9 93 9 206 l1 205 -41 1 c-23 0 -61 1 -85 2 l-42 2 0 -207z"/>
<path d="M10909 17786 c-5 -3 -4 -416 1 -417 7 -1 132 -1 150 0 13 1 15 29 14
199 -1 108 -2 202 -3 208 -1 6 -33 10 -81 10 -44 0 -81 0 -81 0z"/>
<path d="M6188 14118 c81 -153 151 -287 267 -513 54 -104 103 -195 109 -202 6
-7 56 -28 111 -47 55 -19 192 -67 305 -106 113 -40 210 -73 215 -74 6 -2 17
-6 25 -9 18 -8 316 -112 380 -133 25 -8 54 -19 65 -24 11 -5 63 -23 115 -40
52 -17 102 -34 110 -37 8 -3 70 -25 137 -48 136 -48 127 -49 204 25 39 37 371
353 426 406 18 17 96 91 174 165 78 74 160 151 182 172 22 20 38 40 35 43 -4
3 -21 8 -40 10 -18 3 -53 9 -78 14 -42 9 -150 29 -195 36 -11 1 -58 10 -105
19 -83 16 -276 51 -335 61 -16 3 -100 19 -185 35 -172 33 -174 34 -245 44 -27
4 -53 9 -57 11 -3 2 -28 7 -54 10 -27 3 -51 7 -54 9 -4 2 -33 9 -66 14 -77 13
-146 26 -274 50 -58 10 -121 22 -140 25 -19 3 -44 7 -55 10 -48 10 -202 38
-220 41 -11 1 -60 10 -110 20 -49 9 -101 18 -115 20 -22 4 -81 15 -146 29 -12
2 -39 7 -60 10 -63 10 -229 41 -274 50 -14 3 -45 9 -68 12 l-44 6 60 -114z"/>
<path d="M14320 14214 c-36 -7 -81 -15 -100 -18 -19 -4 -57 -11 -85 -16 -27
-5 -63 -12 -80 -15 -16 -3 -66 -12 -110 -21 -44 -8 -91 -17 -105 -19 -14 -2
-63 -11 -110 -20 -47 -9 -96 -18 -110 -20 -26 -4 -165 -30 -210 -39 -14 -3
-63 -12 -110 -20 -47 -9 -98 -18 -115 -21 -102 -19 -193 -36 -215 -40 -13 -2
-42 -7 -65 -10 -22 -4 -56 -10 -75 -15 -19 -4 -57 -12 -85 -16 -27 -4 -52 -8
-55 -9 -7 -2 -71 -14 -100 -19 -22 -3 -58 -10 -125 -22 -11 -2 -58 -11 -105
-20 -47 -9 -96 -18 -110 -20 -14 -3 -74 -14 -135 -25 -60 -12 -120 -23 -132
-25 -13 -2 -35 -6 -50 -9 -16 -3 -41 -8 -58 -11 -16 -3 -39 -7 -50 -8 -11 -2
-33 -6 -50 -9 -16 -4 -46 -9 -65 -12 -19 -3 -42 -8 -50 -10 -8 -2 -31 -6 -50
-9 -55 -9 -94 -17 -98 -20 -3 -3 64 -68 379 -366 20 -19 105 -100 189 -180 84
-80 169 -160 189 -179 20 -18 59 -56 87 -83 l50 -49 290 102 c159 55 384 134
499 174 116 40 302 105 415 145 113 39 246 85 296 102 l91 31 58 111 c31 61
81 156 110 211 29 55 96 186 150 290 54 105 102 194 106 200 26 28 2 30 -101
9z"/>
<path d="M10130 13699 c-69 -16 -138 -31 -155 -34 -16 -3 -38 -8 -47 -11 -9
-3 -25 -7 -35 -9 -10 -2 -63 -13 -119 -25 l-101 -22 -89 -85 c-90 -85 -424
-406 -611 -587 -97 -94 -112 -114 -279 -380 -96 -155 -256 -409 -354 -566
-119 -190 -178 -291 -175 -305 2 -11 7 -63 10 -115 3 -52 8 -122 10 -155 3
-33 7 -89 9 -125 10 -138 16 -227 21 -280 8 -91 16 -191 20 -260 2 -36 6 -99
9 -140 3 -41 8 -111 11 -155 3 -44 8 -96 10 -115 2 -19 7 -78 10 -130 3 -52 8
-115 10 -140 2 -25 6 -90 10 -145 4 -55 8 -116 10 -135 2 -19 6 -80 10 -135 3
-55 7 -116 10 -135 2 -19 7 -75 10 -125 5 -86 11 -173 20 -280 2 -27 7 -90 10
-140 3 -49 8 -110 10 -135 3 -25 7 -85 10 -135 8 -120 12 -177 19 -255 3 -36
8 -103 11 -150 3 -47 8 -110 10 -140 3 -30 7 -91 10 -135 7 -99 13 -180 20
-267 10 -129 15 -203 20 -278 3 -41 7 -97 9 -125 3 -27 7 -88 11 -135 3 -47 8
-111 11 -142 3 -32 7 -90 9 -130 2 -40 6 -102 9 -138 7 -82 25 -322 31 -415 3
-38 7 -89 9 -113 4 -38 53 -110 447 -650 l443 -608 415 -206 414 -205 416 208
416 208 285 392 c157 215 299 411 315 435 17 23 87 121 157 216 70 96 127 183
127 194 -1 17 2 55 15 234 3 36 8 99 11 140 3 41 8 98 10 125 2 28 7 92 10
142 3 51 8 110 10 130 2 21 6 85 10 143 4 58 9 121 11 140 2 19 6 76 9 125 7
115 11 171 20 270 3 44 8 109 10 145 2 36 7 90 10 120 2 30 7 93 10 140 3 47
8 112 10 145 5 57 10 114 20 265 2 36 7 97 10 135 3 39 7 104 10 145 3 41 7
102 10 135 6 65 13 168 19 255 10 139 17 239 21 286 3 28 7 84 10 125 6 86 13
177 20 269 5 74 16 213 20 280 12 178 23 319 30 410 10 115 14 173 20 255 3
44 7 107 10 140 3 33 7 96 10 140 3 44 8 112 11 150 3 39 7 93 9 120 3 57 14
195 21 273 2 30 -1 62 -7 75 -51 95 -708 1128 -733 1150 -26 25 -137 131 -486
467 -32 30 -105 102 -164 158 -106 102 -131 118 -206 128 -19 3 -48 9 -65 14
-16 5 -61 16 -100 25 -66 15 -86 19 -143 31 -13 3 -60 13 -105 24 -103 25
-106 25 -257 -11z m318 -184 c353 -77 362 -80 401 -120 20 -21 31 -39 26 -41
-33 -13 -359 -235 -361 -246 -1 -7 -12 -69 -24 -138 -12 -69 -24 -134 -26
-145 -2 -11 -6 -33 -9 -50 -3 -16 -7 -43 -10 -60 -3 -16 -7 -40 -9 -51 -2 -12
-7 -39 -11 -60 -12 -80 -45 -260 -50 -276 -4 -11 10 -28 42 -55 26 -21 50 -40
53 -43 3 -3 63 -53 135 -110 159 -128 161 -131 188 -153 12 -10 73 -59 134
-109 l113 -91 -37 -51 c-21 -28 -82 -112 -136 -186 -55 -74 -101 -140 -104
-147 -4 -11 -32 -21 -83 -29 -14 -2 -45 -9 -70 -14 -25 -5 -83 -16 -130 -25
-47 -8 -96 -17 -110 -20 -89 -18 -80 -18 -240 12 -14 2 -59 11 -100 19 -41 8
-84 16 -95 18 -26 4 -85 16 -106 22 -17 5 -299 384 -299 402 0 6 4 12 9 14 5
2 26 17 47 35 22 17 156 127 299 243 143 116 270 220 283 231 18 15 22 27 18
47 -3 15 -8 43 -11 62 -3 19 -8 42 -10 50 -2 8 -7 31 -10 50 -3 19 -10 61 -16
93 -5 32 -12 70 -14 85 -2 15 -8 50 -14 77 -6 28 -13 66 -15 85 -3 19 -15 87
-26 150 -11 63 -20 118 -20 122 0 7 -75 58 -284 192 l-89 58 39 36 c36 33 65
44 174 67 14 3 102 23 195 44 94 21 178 39 188 40 10 1 89 -15 175 -34z
m-1467 -1303 c78 -108 159 -219 179 -247 21 -27 131 -178 245 -335 334 -458
309 -426 352 -433 21 -3 52 -9 68 -12 77 -15 202 -38 222 -40 11 -2 29 -6 40
-9 10 -3 34 -8 53 -11 19 -3 58 -10 86 -16 52 -10 62 -9 194 16 41 8 86 17
100 19 14 3 34 7 45 9 11 2 79 15 151 28 l130 23 169 230 c93 127 292 401 444
609 217 300 277 375 286 365 6 -7 54 -80 105 -163 51 -82 107 -172 125 -200
17 -27 80 -127 139 -221 l107 -171 -5 -59 c-3 -32 -8 -97 -11 -144 -3 -47 -8
-101 -10 -120 -1 -19 -6 -84 -10 -145 -4 -60 -8 -128 -11 -150 -2 -22 -6 -76
-9 -120 -2 -45 -7 -105 -9 -135 -3 -30 -8 -89 -11 -130 -2 -41 -7 -109 -10
-150 -9 -111 -14 -186 -20 -275 -2 -44 -7 -100 -10 -125 -4 -45 -15 -186 -20
-270 -7 -107 -16 -238 -20 -270 -2 -19 -7 -84 -10 -145 -4 -60 -8 -126 -10
-145 -4 -39 -14 -167 -20 -245 -2 -27 -7 -95 -11 -150 -8 -118 -10 -141 -18
-260 -4 -49 -9 -117 -11 -150 -3 -33 -7 -94 -10 -135 -3 -41 -8 -104 -11 -140
-3 -36 -7 -94 -9 -130 -2 -36 -6 -92 -9 -125 -3 -33 -8 -98 -11 -145 -3 -47
-7 -110 -10 -140 -3 -30 -8 -91 -10 -135 -3 -44 -7 -98 -9 -120 -2 -22 -7 -87
-11 -145 -4 -58 -8 -121 -10 -140 -2 -20 -7 -81 -10 -135 -4 -55 -8 -116 -10
-135 -1 -19 -6 -80 -10 -135 -4 -55 -9 -120 -11 -145 -2 -25 -6 -85 -9 -135
-3 -49 -8 -100 -10 -112 -2 -12 -104 -159 -227 -328 -123 -169 -309 -425 -413
-568 l-190 -262 -357 -178 -357 -177 -358 179 -358 179 -140 194 c-77 106
-143 198 -148 203 -4 6 -53 73 -109 150 -56 77 -127 174 -157 215 -31 41 -65
88 -77 105 -11 16 -49 68 -83 115 -122 167 -116 150 -126 335 -1 28 -5 79 -8
115 -6 60 -14 165 -23 300 -6 88 -15 211 -19 260 -2 25 -6 86 -10 135 -3 50
-8 115 -11 145 -2 30 -7 87 -9 125 -3 39 -7 95 -9 125 -3 30 -8 98 -11 150 -3
52 -8 118 -10 145 -3 28 -7 86 -10 130 -3 44 -7 103 -10 130 -2 28 -7 84 -10
125 -3 41 -7 104 -10 140 -2 36 -7 101 -10 145 -3 44 -7 104 -10 134 -2 30 -6
90 -10 135 -8 111 -22 306 -30 411 -2 28 -7 91 -10 140 -3 50 -8 113 -11 140
-2 28 -7 86 -10 130 -3 44 -7 105 -9 135 -2 30 -6 91 -10 135 -3 44 -7 105
-10 135 -3 30 -7 89 -10 130 -2 41 -6 100 -9 130 -7 79 -15 192 -21 290 -3 47
-8 110 -11 140 -3 30 -7 91 -10 135 -3 44 -6 91 -8 105 -1 14 -6 84 -11 155
-4 72 -9 138 -11 148 -2 10 -6 64 -10 120 -3 56 -7 115 -9 130 -3 23 26 76
139 255 78 125 187 298 241 384 54 87 101 155 106 153 4 -3 71 -94 150 -203z"/>
<path d="M10250 10518 c-45 -19 -63 -26 -180 -68 -63 -23 -164 -60 -225 -82
-60 -22 -117 -42 -125 -45 -8 -3 -20 -7 -27 -8 -49 -11 -176 -96 -477 -319
l-348 -259 6 -46 c3 -25 8 -57 11 -71 3 -14 7 -38 9 -55 4 -27 59 -359 72
-430 3 -16 7 -41 9 -55 2 -14 16 -95 30 -180 15 -85 28 -166 30 -180 2 -14 6
-38 9 -55 3 -16 15 -86 27 -155 12 -69 21 -135 20 -148 -2 -38 16 -16 29 35 6
27 14 55 16 63 2 8 13 47 24 85 12 39 27 93 35 120 7 28 34 122 60 210 25 88
48 168 51 178 10 42 15 59 49 177 21 69 39 132 41 140 2 8 10 40 19 70 9 30
19 65 22 77 3 13 8 21 12 19 3 -2 29 -6 56 -9 28 -3 80 -11 116 -16 37 -6 89
-13 115 -16 27 -3 60 -7 74 -9 14 -3 48 -8 75 -11 28 -4 66 -9 85 -11 19 -3
51 -7 70 -9 19 -2 45 -6 57 -9 34 -7 155 -20 188 -20 30 0 122 10 161 18 11 2
45 7 75 10 30 3 63 8 75 10 12 2 45 7 75 11 30 3 65 8 79 10 14 2 43 7 65 9
115 15 141 18 155 21 41 7 141 17 147 13 4 -1 8 -7 9 -13 1 -5 10 -37 20 -70
10 -33 19 -64 20 -70 7 -35 286 -1004 293 -1020 9 -18 10 -17 12 8 1 15 2 30
3 35 1 4 6 32 10 62 5 30 10 64 12 75 3 11 13 74 24 140 11 66 22 129 24 140
2 11 9 54 15 95 7 41 16 95 21 120 5 25 12 65 16 90 3 25 14 97 25 160 11 63
23 133 25 155 3 22 8 47 10 55 3 8 7 31 10 50 2 19 10 71 18 115 8 44 13 80
13 81 -1 1 -65 48 -142 105 -613 454 -577 430 -687 471 -101 38 -550 202 -579
212 -7 3 -25 0 -39 -6z"/>
<path d="M8995 6718 c4 -13 23 -59 41 -103 19 -44 117 -280 217 -525 l183
-445 175 -71 c96 -39 185 -76 199 -82 14 -6 63 -26 110 -45 47 -18 94 -38 105
-42 11 -5 22 -9 25 -10 3 -1 16 -6 30 -12 106 -45 181 -72 201 -71 20 1 252
88 354 132 17 8 134 55 260 106 l230 92 114 277 c248 601 284 688 312 754 28
66 26 71 -16 36 -19 -17 -270 -216 -329 -262 -15 -12 -33 -27 -40 -32 -6 -6
-78 -64 -161 -129 -82 -65 -159 -125 -170 -134 -159 -130 -158 -130 -291 -171
-71 -22 -159 -49 -197 -61 l-67 -21 -163 51 c-89 28 -177 56 -195 62 -18 5
-90 55 -160 111 -70 56 -272 218 -450 359 -218 174 -321 251 -317 236z"/>
<path d="M5141 10818 c-1 -3 53 -156 120 -340 66 -183 150 -414 186 -513 35
-99 82 -227 103 -285 21 -58 80 -220 130 -360 50 -140 95 -264 100 -275 4 -11
28 -75 51 -143 l44 -123 403 -287 c221 -158 517 -369 657 -469 140 -100 255
-180 255 -178 0 6 -839 1226 -1165 1695 -17 25 -92 133 -166 240 -73 107 -157
229 -186 270 -28 41 -92 134 -141 205 -49 72 -152 221 -228 332 -76 110 -144
209 -151 220 -6 10 -12 15 -12 11z"/>
<path d="M15195 10493 c-125 -181 -388 -562 -585 -848 -388 -563 -413 -599
-498 -722 -31 -45 -128 -185 -214 -310 -86 -125 -179 -259 -205 -298 -27 -38
-89 -128 -138 -200 -49 -71 -111 -161 -138 -198 -26 -38 -47 -70 -45 -72 3 -2
269 186 1083 767 210 151 231 168 247 209 9 24 65 177 123 339 184 510 236
654 245 675 5 11 63 173 130 360 160 447 187 521 210 578 10 26 17 47 15 47
-2 0 -106 -147 -230 -327z"/>
<path d="M12759 2195 c-7 -18 -59 -184 -65 -210 -1 -5 -9 -31 -17 -58 -9 -28
-11 -49 -6 -53 5 -3 36 -5 68 -5 l59 0 0 -877 c1 -767 -1 -883 -15 -926 -10
-32 -12 -50 -5 -55 14 -9 310 -7 319 2 4 4 1 27 -6 50 -10 33 -13 276 -14
1089 -1 575 -6 1050 -10 1055 -5 4 -74 8 -154 8 -136 0 -146 -1 -154 -20z"/>
<path d="M6760 2198 c1 -7 7 -31 15 -53 12 -34 15 -194 15 -1036 0 -890 -2
-1000 -16 -1043 -9 -26 -13 -50 -9 -54 8 -8 792 -10 806 -1 9 5 20 62 35 191
3 29 8 56 10 60 11 17 -38 21 -285 22 l-266 1 0 343 c-1 302 1 342 15 343 66
4 176 -4 209 -16 21 -7 42 -11 45 -8 8 8 8 318 0 326 -3 3 -25 -1 -47 -9 -24
-9 -82 -16 -132 -17 l-90 -1 0 344 0 345 265 1 c250 0 297 4 285 23 -2 5 -7
30 -10 57 -6 65 -15 133 -21 167 l-6 27 -409 0 c-321 0 -409 -3 -409 -12z"/>
<path d="M7845 2143 l-70 -66 -1 -486 0 -485 42 -41 c23 -22 55 -53 72 -69
l31 -28 204 0 204 1 1 -345 2 -344 -140 0 -140 0 0 84 c0 49 6 101 15 127 9
24 14 48 11 54 -5 13 -309 15 -322 3 -4 -4 -1 -29 7 -55 8 -30 13 -105 13
-201 l1 -154 71 -66 70 -67 277 0 277 0 68 71 68 70 -1 479 0 479 -67 69 -68
70 -210 0 -210 1 0 343 0 343 38 1 c49 1 214 1 230 0 19 -1 16 -155 -5 -213
-9 -26 -14 -50 -11 -53 7 -7 318 -8 325 -1 3 3 0 27 -8 53 -8 31 -13 104 -14
201 l0 153 -69 69 -69 70 -276 0 -276 0 -70 -67z"/>
<path d="M8797 2203 c-3 -5 -8 -39 -12 -77 -7 -68 -10 -88 -20 -153 -7 -40 -2
-42 150 -40 l120 0 0 -919 c0 -505 -3 -928 -7 -939 -17 -47 -20 -65 -12 -66
38 -6 317 -3 320 3 3 4 -1 27 -8 50 -9 33 -12 256 -14 948 0 498 1 910 3 915
2 6 51 9 126 8 67 -1 127 3 133 8 7 6 8 28 3 66 -4 32 -10 80 -14 107 -3 27
-8 60 -11 73 l-6 23 -373 0 c-206 0 -376 -3 -378 -7z"/>
<path d="M10770 2187 c-14 -13 -45 -45 -70 -73 l-46 -49 1 -150 c1 -106 -3
-162 -13 -192 -7 -24 -12 -48 -10 -54 3 -9 50 -12 162 -11 87 0 160 3 163 6 3
3 -2 26 -11 52 -20 59 -22 213 -3 215 14 1 249 1 260 0 4 -1 7 -156 7 -345 l0
-343 -187 -1 c-104 0 -199 -1 -211 -1 -22 -1 -150 -116 -153 -138 -5 -39 -3
-1063 2 -1078 6 -19 15 -20 403 -20 219 0 402 3 409 7 7 4 11 77 12 230 0 154
5 235 14 260 7 21 10 42 7 47 -7 12 -315 11 -322 0 -3 -5 2 -29 11 -54 9 -27
15 -80 15 -129 l0 -83 -140 0 -140 -1 0 344 0 343 163 0 c89 0 183 1 208 1 44
0 50 4 110 64 35 36 66 72 69 80 3 8 5 227 4 486 l0 471 -69 69 -69 70 -276 0
c-272 -1 -275 -1 -300 -23z"/>
<path d="M11760 2142 l-69 -68 0 -966 0 -965 72 -70 72 -69 271 1 272 0 48 45
c27 25 59 57 72 72 l23 27 -1 962 0 963 -67 68 -68 68 -278 0 -278 0 -69 -68z
m477 -215 c5 -5 8 -1505 4 -1624 -1 -23 -3 -23 -136 -23 -122 0 -135 2 -136
18 -3 94 0 1623 4 1629 6 9 254 9 264 0z"/>
<path d="M13353 2140 l-68 -70 0 -963 0 -964 70 -70 70 -69 272 1 273 0 70 70
70 69 0 481 0 480 -67 68 c-36 37 -74 67 -82 68 -9 0 -103 1 -208 1 l-193 1 0
41 c-1 79 -1 561 -1 606 l1 45 128 -1 c70 0 133 -3 138 -7 15 -9 10 -163 -6
-215 -7 -23 -11 -44 -8 -47 7 -7 317 -9 325 -2 3 4 -2 26 -11 50 -12 33 -16
78 -16 201 l0 157 -67 70 -67 69 -278 0 -277 0 -68 -70z m482 -1515 l0 -340
-137 -1 -138 -1 0 41 c-1 61 -1 522 -1 588 l1 57 138 -2 137 -2 0 -340z"/>
<path d="M9602 282 c-36 -5 -55 -54 -53 -141 1 -52 7 -84 19 -106 l18 -30 99
0 99 0 18 32 c40 68 19 242 -30 244 -66 3 -151 3 -170 1z"/>
</g>
</svg>
